<?xml version="1.0" encoding="UTF-8" standalone="no"?>
<!-- Created with Inkscape (http://www.inkscape.org/) -->

<svg
   xmlns:dc="http://purl.org/dc/elements/1.1/"
   xmlns:cc="http://creativecommons.org/ns#"
   xmlns:rdf="http://www.w3.org/1999/02/22-rdf-syntax-ns#"
   xmlns:svg="http://www.w3.org/2000/svg"
   xmlns="http://www.w3.org/2000/svg"
   xmlns:sodipodi="http://sodipodi.sourceforge.net/DTD/sodipodi-0.dtd"
   xmlns:inkscape="http://www.inkscape.org/namespaces/inkscape"
   width="100"
   height="100"
   id="svg2"
   version="1.1"
   inkscape:version="0.48.4 r9939"
   sodipodi:docname="template.svg">
  <defs
     id="defs4" />
  <sodipodi:namedview
     id="base"
     pagecolor="#ffffff"
     bordercolor="#666666"
     borderopacity="1.0"
     inkscape:pageopacity="0.0"
     inkscape:pageshadow="2"
     inkscape:zoom="5.6"
     inkscape:cx="24.383632"
     inkscape:cy="62.857143"
     inkscape:document-units="px"
     inkscape:current-layer="layer1"
     showgrid="false"
     fit-margin-top="0"
     fit-margin-left="0"
     fit-margin-right="0"
     fit-margin-bottom="0"
     inkscape:window-width="1301"
     inkscape:window-height="744"
     inkscape:window-x="65"
     inkscape:window-y="24"
     inkscape:window-maximized="1" />
  <metadata
     id="metadata7">
    <rdf:RDF>
      <cc:Work
         rdf:about="">
        <dc:format>image/svg+xml</dc:format>
        <dc:type
           rdf:resource="http://purl.org/dc/dcmitype/StillImage" />
        <dc:title></dc:title>
      </cc:Work>
    </rdf:RDF>
  </metadata>
  <g
     inkscape:label="Layer 1"
     inkscape:groupmode="layer"
     id="layer1"
     transform="translate(0,-952.36218)">
    <path
       style="font-size:medium;font-style:normal;font-variant:normal;font-weight:normal;font-stretch:normal;text-indent:0;text-align:start;text-decoration:none;line-height:normal;letter-spacing:normal;word-spacing:normal;text-transform:none;direction:ltr;block-progression:tb;writing-mode:lr-tb;text-anchor:start;baseline-shift:baseline;color:#000000;fill:#000080;fill-opacity:1;stroke:#000000;stroke-width:1px;marker:none;visibility:visible;display:inline;overflow:visible;enable-background:accumulate;font-family:Sans;-inkscape-font-specification:Sans;stroke-opacity:1"
       d="m 51.53125,970.76843 c -4.093666,0.0743 -8.2128,0.009 -12.3125,0.0312 -3.510498,0.74145 -7.855925,1.1868 -9.99027,4.5516 -2.282364,3.44436 -5.258751,6.30958 -8.344136,9.01189 -2.566432,2.31468 -3.824086,5.70534 -3.240739,9.13059 0.276858,3.29108 -1.169898,6.42531 -1.706713,9.64289 -0.923037,3.6899 -1.950672,7.5554 -4.70275,10.3442 -0.64306,1.5599 -0.135046,3.4201 -0.296642,5.1142 -0.606221,2.3245 1.247456,2.8908 3.060727,3.8373 1.978078,0.7166 0.980706,3.0954 1.220523,4.7023 0.04438,2.7696 -0.08628,5.5736 0.0625,8.3215 1.832288,1.9576 4.120824,4.5448 6.28125,6.6878 1.273068,0.8246 3.061986,0.1797 4.554543,0.3745 2.91322,0.4426 5.802921,-1.2624 8.601707,-0.72 3.192626,-0.2256 2.382312,-4.526 3.468196,-6.7904 0.204271,-4.629 10.01814,-2.6199 11.420197,-7.0389 0.02978,-6.4037 11.30962,6.4872 9.522321,-2.0842 3.468192,1.503 6.494733,-0.8979 10.046738,0.5361 3.383425,0.5907 10.680427,3.0795 13.538084,4.8744 5.985833,-0.092 -2.477892,-9.4343 3.504464,-9.5263 1.412778,-1.3976 -1.330002,-1.8693 0,-2.1557 -0.649401,-2.1506 -1.497221,-4.0996 -3.355162,-5.4418 -2.76964,-1.4802 -4.177475,-4.8962 -6.957338,-5.8392 -3.666618,-0.5325 2.5077,-3.3707 1.046087,-6.1326 -0.07497,-3.70402 0.07742,-7.42044 -0.07734,-11.11722 -1.06211,-1.90984 -3.091056,-4.13727 -5.854869,-3.49995 -4.752337,0.36574 -10.658265,0.87329 -13.951412,-3.36828 -2.117746,-3.33502 -3.30893,-7.32874 -4.282212,-11.04705 -0.355931,-0.69311 -0.211075,-2.38622 -1.255254,-2.39887 z m -12.15625,1 c 3.977556,0.0682 7.958523,0.014 11.9375,0.0312 0.797337,3.02649 1.5476,6.20781 3.010854,9.15833 1.439122,3.08904 3.013168,7.75227 7.174727,7.5689 3.315515,-0.36634 6.635384,-0.23782 9.939419,0.0541 2.321974,-0.38813 4.320714,1.68584 4.5,3.6886 -0.04243,3.87577 0.09149,7.76104 -0.08187,11.62924 -0.360024,1.5884 -5.105274,5.3703 -0.980629,5.0256 2.94214,0.5994 3.680459,4.2015 6.576177,5.2015 1.761573,1.5071 2.887905,3.014 3.330073,4.8597 1.778995,1.3498 -0.08316,2.45 -2.262174,1.8125 -4.745368,0.021 1.933273,3.8876 -2.809255,3.9596 -3.01368,-2.2972 -10.361531,-0.1539 -13.945954,-1.4541 -2.92649,-1.9436 -8.26858,0.8786 -10.763867,-1.2649 -13.401378,1.6502 -4.647096,-2.581 -8.876823,3.8374 -1.380736,4.2023 -8.550124,5.984 -9.123177,10.3277 -1.294716,1.9847 -0.06291,5.4372 -3.602274,4.4456 -2.682761,0.2811 -5.273241,1.1928 -8.00365,0.8665 -3.031818,0.867 -4.489688,-1.3363 -6.168499,-3.3172 -1.256963,-1.6207 -3.428439,-2.692 -3.006827,-4.9349 -0.02031,-3.3213 0.04098,-6.6507 -0.03125,-9.9666 -0.599811,-2.449 -5.100306,-1.9642 -4.25,-4.8983 -0.03273,-1.3456 0.06927,-2.7015 -0.0625,-4.0395 2.56112,-2.3767 3.070101,-5.6794 4.043138,-8.8392 1.754722,-4.066 3.395511,-8.37353 2.779026,-12.88807 -0.78413,-3.3794 1.398727,-6.31562 3.756152,-8.45977 2.993197,-1.1145 2.063354,-5.9563 6.032805,-4.70491 2.459715,-0.9697 3.174285,-5.72882 6.813377,-6.35682 1.288757,-0.89593 2.657576,-0.90425 4.075502,-1.34217 z"
       id="path2990"
       inkscape:connector-curvature="0"
       sodipodi:nodetypes="ccccccccccccccccccccccccccccccccccccccccccccccccccccccccccc" />
    <path
       style="fill:#800000"
       d="m 22.540055,88.8509 c -0.774916,-0.35913 -5.412517,-5.187868 -5.93308,-6.177609 -0.236233,-0.449146 -0.279938,-1.048788 -0.241703,-3.316148 0.02567,-1.522322 -0.01078,-4.158747 -0.08101,-5.858722 L 16.156573,70.407557 15.636674,69.887659 C 15.35073,69.601714 14.56464,69.07762 13.889807,68.723005 12.00214,67.731064 12.045632,67.824027 12.013029,64.711462 c -0.02474,-2.362409 0.0095,-2.713767 0.289095,-2.966805 1.07063,-0.968907 2.201542,-3.336237 3.115087,-6.520791 0.263534,-0.918663 0.906626,-2.75778 1.429092,-4.086929 0.522467,-1.329148 1.173152,-3.257719 1.445968,-4.285714 0.469966,-1.770871 0.496198,-2.075503 0.499249,-5.797652 0.003,-3.690112 0.02754,-3.981317 0.403955,-4.797555 0.831715,-1.803554 2.036682,-3.225091 4.235891,-4.997211 0.352523,-0.284062 0.992419,-1.170735 1.447806,-2.006153 1.078583,-1.978686 1.468127,-2.281982 2.780956,-2.165227 0.921586,0.08196 1.064389,0.04375 1.654595,-0.442749 0.355276,-0.292849 1.205135,-1.32112 1.888575,-2.285048 1.416076,-1.997243 2.577276,-3.078148 3.641326,-3.389541 0.40449,-0.118374 0.907329,-0.324833 1.11742,-0.458798 0.210093,-0.133966 1.03125,-0.409346 1.824796,-0.611957 1.338713,-0.341803 1.877038,-0.364989 7.461177,-0.321357 l 6.018366,0.04703 0.750702,2.678571 c 0.866852,3.093006 1.186489,4.006396 2.218404,6.339286 1.891353,4.275862 3.031243,5.989199 4.593903,6.904979 1.112618,0.652038 1.914824,0.758624 4.411354,0.586124 3.137452,-0.216786 9.44735,0.127122 10.311198,0.561991 0.843057,0.424402 1.826179,1.581022 2.08873,2.457342 0.139063,0.46415 0.206277,2.594189 0.204306,6.474568 -0.0033,6.5629 0.180007,5.670028 -1.738134,8.464716 -0.515625,0.751253 -0.9375,1.557248 -0.9375,1.7911 0,0.503771 0.465553,0.794894 1.271166,0.794894 1.049909,0 2.034084,0.661874 3.747516,2.520263 0.904048,0.98053 2.012986,1.992925 2.464307,2.249766 0.45132,0.256841 1.052409,0.674816 1.335756,0.928834 0.823894,0.738621 2.017375,2.441637 2.356639,3.362768 0.172,0.466996 0.460046,1.014976 0.6401,1.217735 0.476153,0.536193 0.419882,1.122874 -0.127666,1.33105 -0.25027,0.09515 -1.114109,0.159318 -1.919643,0.14259 -2.262738,-0.04699 -2.713493,0.424041 -1.911032,1.996994 0.449407,0.880909 0.452953,1.364729 0.01173,1.600861 -0.434093,0.23232 -1.491609,0.240698 -1.718691,0.01363 -0.09418,-0.09418 -0.692843,-0.315164 -1.330357,-0.491071 -0.987499,-0.272479 -1.780454,-0.313375 -5.355549,-0.276216 -4.484191,0.04661 -6.124521,-0.112504 -7.477621,-0.725334 -0.736395,-0.33352 -1.077655,-0.366104 -3.147379,-0.300522 -4.834716,0.153197 -5.669766,0.114318 -6.36585,-0.29638 -0.582194,-0.343504 -0.775705,-0.363852 -2.137153,-0.224736 -1.858639,0.189923 -5.680029,0.239238 -6.079998,0.07846 -0.254788,-0.102418 -0.284145,-0.02152 -0.205361,0.56586 0.07789,0.580729 -0.06253,0.984879 -0.919797,2.647197 -1.161889,2.253018 -1.748828,2.913425 -4.470412,5.029962 -2.307079,1.794184 -3.262661,2.650086 -3.918052,3.50935 -0.520073,0.68185 -1.588282,3.523361 -1.79738,4.781157 -0.159939,0.96209 -0.515316,1.686504 -0.899711,1.834011 -0.158987,0.06101 -0.795098,0.110925 -1.413582,0.110925 -0.618482,0 -2.03825,0.166002 -3.155038,0.368891 -1.196416,0.217357 -3.130839,0.401841 -4.709094,0.449104 -2.345837,0.07025 -2.767834,0.03884 -3.397148,-0.252809 l 7e-6,-9e-6 z"
       id="path2997"
       inkscape:connector-curvature="0"
       transform="translate(0,952.36218)" />
  </g>
</svg>
